<svg xmlns="http://www.w3.org/2000/svg" xmlns:xlink="http://www.w3.org/1999/xlink" width="66" height="32" viewBox="0 0 66 32">
    <defs>
        <path id="jxsltin4qa" d="M0 0L7.399 0 7.399 16.324 0 16.324z"/>
        <path id="ttojdb46hc" d="M13.727 0c-.18 0-.361.038-.498.114L.694 6.945l14.042 8.175c.13.07.23.24.23.392l-.001 11.925c0 .15-.107.322-.238.392l-.756.42c-.063.033-.142.05-.226.05h-.015c-.09.003-.175-.015-.24-.05l-.759-.42c-.129-.069-.234-.242-.234-.392v-10.63c-.007-.078-.064-.173-.126-.209L0 9.397v14.105c0 .316.222.705.495.865l12.741 7.514c.135.079.312.119.49.119h.005c.18 0 .36-.038.495-.119l12.743-7.514c.272-.161.494-.549.493-.865V9.397l-8.384 4.884c-.13.076-.332.07-.458-.008l-.743-.442c-.06-.037-.116-.097-.158-.17l-.008-.012c-.047-.077-.074-.16-.077-.234l-.019-.866c-.005-.146.091-.324.22-.4l8.933-5.204L14.234.114C14.096.037 13.914 0 13.732 0h-.005z"/>
        <linearGradient id="tvtpcgj64d" x1="13.531%" x2="50.822%" y1="84.866%" y2="48.404%">
            <stop offset="0%" stop-color="#A80034"/>
            <stop offset="100%" stop-color="#DB0031"/>
        </linearGradient>
    </defs>
    <g fill="none" fill-rule="evenodd">
        <g>
            <g>
                <g>
                    <path fill="#414042" d="M4.636 14.458c-.39 0-.99-.027-1.51-.13v-6.2c.495-.234 1.146-.365 1.927-.365 1.901 0 3.177 1.173 3.177 3.23 0 2.214-1.38 3.465-3.594 3.465m.677-9.454c-.807 0-1.667.102-2.188.364V0H0v16.593c1.381.365 3.178.546 4.741.546 4.01 0 6.668-2.135 6.668-6.042 0-3.698-2.475-6.093-6.096-6.093M17.701 4.916c-3.061 0-5.042 1.135-5.042 4.646v7.39h3.194v-7.18c0-1.32.713-2.005 2.085-2.005.766 0 1.558.101 2.218.312V5.127c-.811-.134-1.632-.205-2.455-.211" transform="translate(-38.000000, -17.000000) translate(38.000000, 17.000000) translate(36.261762, 6.945250)"/>
                    <g transform="translate(-38.000000, -17.000000) translate(38.000000, 17.000000) translate(36.261762, 6.945250) translate(21.614842, 0.912260)">
                        <mask id="woxahnpnsb" fill="#fff">
                            <use xlink:href="#jxsltin4qa"/>
                        </mask>
                        <path fill="#414042" d="M5.211 13.51c-1.355 0-2.058-.678-2.058-1.98V6.937h4.112V4.333H3.153V0H0v11.739c0 3.464 1.954 4.585 4.977 4.585.754 0 1.588-.075 2.422-.208v-2.914c-.65.208-1.432.307-2.188.307" mask="url(#woxahnpnsb)"/>
                    </g>
                </g>
                <g transform="translate(-38.000000, -17.000000) translate(38.000000, 17.000000)">
                    <mask id="yjewq3upte" fill="#fff">
                        <use xlink:href="#ttojdb46hc"/>
                    </mask>
                    <path fill="url(#tvtpcgj64d)" d="M13.727 0c-.18 0-.361.038-.498.114L.694 6.945l14.042 8.175c.13.07.23.24.23.392l-.001 11.925c0 .15-.107.322-.238.392l-.756.42c-.063.033-.142.05-.226.05h-.015c-.09.003-.175-.015-.24-.05l-.759-.42c-.129-.069-.234-.242-.234-.392v-10.63c-.007-.078-.064-.173-.126-.209L0 9.397v14.105c0 .316.222.705.495.865l12.741 7.514c.135.079.312.119.49.119h.005c.18 0 .36-.038.495-.119l12.743-7.514c.272-.161.494-.549.493-.865V9.397l-8.384 4.884c-.13.076-.332.07-.458-.008l-.743-.442c-.06-.037-.116-.097-.158-.17l-.008-.012c-.047-.077-.074-.16-.077-.234l-.019-.866c-.005-.146.091-.324.22-.4l8.933-5.204L14.234.114C14.096.037 13.914 0 13.732 0h-.005z" mask="url(#yjewq3upte)"/>
                </g>
            </g>
        </g>
    </g>
</svg>
